<mxfile host="app.diagrams.net" modified="2023-05-31T05:54:50.496Z" agent="Mozilla/5.0 (Windows NT 10.0; Win64; x64) AppleWebKit/537.36 (KHTML, like Gecko) Chrome/113.0.0.0 Safari/537.36" version="21.3.6" etag="1XHQ1avjQutiLnPmQN_X" type="github">
  <diagram name="Page-1" id="Gzs8lpX1u0B0sLz5hb0p">
    <mxGraphModel>
      <root>
        <mxCell id="0" />
        <mxCell id="1" parent="0" />
      </root>
    </mxGraphModel>
  </diagram>
</mxfile>
